<?xml version="1.0" standalone="yes"?>
<svg xmlns="http://www.w3.org/2000/svg" viewBox="0 0 128 128">
 <style type="text/css">
  <![CDATA[
  line { fill: none; stroke-width: 6px; }
  ]]>
 </style>
 <g id="rotor">
  <line x1="64" y1="36" x2="64" y2="6" style="stroke: #446677;" />
  <line x1="64" y1="35" x2="64" y2="6" transform="rotate(-18, 64, 64)" style="stroke: #4a6c7d;" />
  <line x1="64" y1="34" x2="64" y2="6" transform="rotate(-36, 64, 64)" style="stroke: #507384;" />
  <line x1="64" y1="33" x2="64" y2="6" transform="rotate(-54, 64, 64)" style="stroke: #56798a;" />
  <line x1="64" y1="32" x2="64" y2="6" transform="rotate(-72, 64, 64)" style="stroke: #5c7f90;" />
  <line x1="64" y1="31" x2="64" y2="6" transform="rotate(-90, 64, 64)" style="stroke: #638596;" />
  <line x1="64" y1="30" x2="64" y2="6" transform="rotate(-108, 64, 64)" style="stroke: #698b9c;" />
  <line x1="64" y1="29" x2="64" y2="6" transform="rotate(-126, 64, 64)" style="stroke: #6f91ac;" />
  <line x1="64" y1="28" x2="64" y2="6" transform="rotate(-144, 64, 64)" style="stroke: #7597b2;" />
  <line x1="64" y1="27" x2="64" y2="6" transform="rotate(-162, 64, 64)" style="stroke: #7b9db8;" />
  <line x1="64" y1="26" x2="64" y2="6" transform="rotate(-180, 64, 64)" style="stroke: #81a3be;" />
  <line x1="64" y1="25" x2="64" y2="6" transform="rotate(-198, 64, 64)" style="stroke: #87a9c4;" />
  <line x1="64" y1="24" x2="64" y2="6" transform="rotate(-216, 64, 64)" style="stroke: #8dafca;" />
  <line x1="64" y1="23" x2="64" y2="6" transform="rotate(-234, 64, 64)" style="stroke: #93b5d0;" />
  <line x1="64" y1="22" x2="64" y2="6" transform="rotate(-252, 64, 64)" style="stroke: #99bbd6;" />
  <line x1="64" y1="21" x2="64" y2="6" transform="rotate(-270, 64, 64)" style="stroke: #9fc2dc;" />
  <line x1="64" y1="20" x2="64" y2="6" transform="rotate(-288, 64, 64)" style="stroke: #a5c8e2;" />
  <line x1="64" y1="19" x2="64" y2="6" transform="rotate(-306, 64, 64)" style="stroke: #abcee8;" />
  <line x1="64" y1="18" x2="64" y2="6" transform="rotate(-324, 64, 64)" style="stroke: #b1d4ee;" />
  <line x1="64" y1="17" x2="64" y2="6" transform="rotate(-342, 64, 64)" style="stroke: #b7daf4;" />
  <animateTransform attributeName="transform" type="rotate" from="0 64 64" to ="360 64 64" dur="3.25s" repeatCount="indefinite" />
 </g>
</svg>

