<?xml version="1.0" encoding="UTF-8" standalone="no"?>
<svg xmlns="http://www.w3.org/2000/svg" width="128" height="128" viewBox="0 0 128 128">
  <style type="text/css"><![CDATA[
  path { fill: #222; stroke: none; }
  ]]></style>
 <g transform="translate(0,-924.36216)">
  <path
       d="m 67.304597,1037.8271 c -2.285518,-6.9463 -5.206128,-14.4374 -6.490246,-16.6467 -5.906605,-10.1625 -19.415045,-28.11023 -27.578899,-36.6421 -2.321137,-2.42579 -4.999559,-6.07366 -5.952049,-8.10643 -2.064304,-4.40553 -2.475212,-17.98456 -0.765893,-25.31003 2.466607,-10.57093 9.044949,-22.55234 12.382268,-22.55234 0.612774,0 1.044766,6.1872 1.028984,14.73765 -0.03022,16.3767 0.728104,18.74575 7.062266,22.06294 4.642008,2.43102 20.400344,0.56823 24.152555,-1.12898 1.434228,-0.64874 2.561714,-1.46506 3.096282,-1.81407 0.5159,-0.3368 1.823918,-1.3378 2.687991,-2.97286 1.587769,-3.00452 1.838696,-17.8535 0.478999,-28.34538 -0.958365,-7.39505 2.360284,-6.4725 9.134523,2.53933 12.506502,16.63749 7.847269,39.94127 5.680512,46.05555 -0.879828,2.48276 0.137335,-0.91175 -0.465842,1.87565 -0.385794,1.78283 -0.13901,0.97213 -1.059452,5.27557 -1.329188,6.21453 -1.003475,24.1413 0.52378,28.8277 0.711844,2.1844 1.477647,4.9347 1.701783,6.1119 0.224137,1.1772 2.215423,7.7492 4.425082,14.6045 2.209657,6.8552 4.047479,12.6715 4.017559,13.2608 -0.54251,1.4451 -13.035165,-0.3525 -18.618138,0.3482 -2.846429,0.4916 -5.279186,0.3595 -8.004806,0.3595 -3.302472,0 -3.365416,-0.1647 -7.437259,-12.5401 z"/>
 </g>
</svg>
