<?xml version="1.0" encoding="UTF-8" standalone="no"?>
<svg xmlns="http://www.w3.org/2000/svg" viewBox="0 0 128 128">
 <defs>
  <linearGradient id="plate" x1="100%" y1="0%" x2="50%" y2="100%">
   <stop offset="0%" stop-color="#383f3f" />
   <stop offset="100%" stop-color="#202020" />
  </linearGradient>
 </defs>
  <style type="text/css"><![CDATA[
  path { fill: url(#plate); stroke: none; }
  ]]></style>
 <g transform="translate(0,-924.36216)">
    <path d="m 67.304597,1037.8271 c -2.285518,-6.9463 -5.206128,-14.4374 -6.490246,-16.6467 -5.906605,-10.1625 -19.415045,-28.11023 -27.578899,-36.6421 -2.321137,-2.42579 -4.999559,-6.07366 -5.952049,-8.10643 -2.064304,-4.40553 -2.475212,-17.98456 -0.765893,-25.31003 2.466607,-10.57093 9.044949,-22.55234 12.382268,-22.55234 0.612774,0 1.044766,6.1872 1.028984,14.73765 -0.03022,16.3767 0.728104,18.74575 7.062266,22.06294 4.642008,2.43102 20.400344,0.56823 24.152555,-1.12898 2.336042,-1.09071 4.752284,-2.8967 5.784273,-4.78693 1.587769,-3.00452 1.838696,-17.8535 0.478999,-28.34538 -0.958365,-7.39505 2.360284,-6.4725 9.134523,2.53933 12.506502,16.63749 7.847269,39.94127 5.680512,46.05555 -0.879828,2.48276 0.137335,-0.91175 -0.465842,1.87565 -0.385794,1.78283 -0.13901,0.97213 -1.059452,5.27557 -1.329188,6.21453 -1.003475,24.1413 0.52378,28.8277 0.711844,2.1844 1.477647,4.9347 1.701783,6.1119 0.224137,1.1772 2.215423,7.7492 4.425082,14.6045 2.209657,6.8552 3.566659,9.7866 4.818929,13.9019 -5.030187,0.3232 -9.26408,-0.01 -17.277938,0.2013 -4.449171,-0.1495 -7.58103,-0.1347 -13.992958,-0.1347 -1.877305,-6.4289 -1.315544,-3.8183 -3.590677,-12.5404 z" />
 </g>
</svg>
